<?xml version="1.0" encoding="UTF-8" standalone="no"?>
<!DOCTYPE svg PUBLIC "-//W3C//DTD SVG 1.1//EN" "http://www.w3.org/Graphics/SVG/1.1/DTD/svg11.dtd">
<svg version="1.1" xmlns="http://www.w3.org/2000/svg" xmlns:xlink="http://www.w3.org/1999/xlink" preserveAspectRatio="xMidYMid meet" viewBox="0 0 640 640" width="640" height="640"><defs><path d="M316.22 275.24C327.27 275.24 336.22 284.2 336.22 295.24C336.22 307.24 336.22 323.24 336.22 335.24C336.22 346.29 327.27 355.24 316.22 355.24C304.22 355.24 288.22 355.24 276.22 355.24C265.18 355.24 256.22 346.29 256.22 335.24C256.22 323.24 256.22 307.24 256.22 295.24C256.22 284.2 265.18 275.24 276.22 275.24C288.22 275.24 304.22 275.24 316.22 275.24Z" id="g5cSjaQ4VS"></path><path d="M280.35 312.66C280.35 319.1 276.01 324.34 270.66 324.34C265.32 324.34 260.98 319.1 260.98 312.66C260.98 306.21 265.32 300.98 270.66 300.98C276.01 300.98 280.35 306.21 280.35 312.66Z" id="b1MajmxdQN"></path><path d="M333.08 312.66C333.08 319.1 328.82 324.34 323.57 324.34C318.32 324.34 314.06 319.1 314.06 312.66C314.06 306.21 318.32 300.98 323.57 300.98C328.82 300.98 333.08 306.21 333.08 312.66Z" id="l46dtQpsik"></path></defs><g><g><g><use xlink:href="#g5cSjaQ4VS" opacity="1" fill="#cbcbcb" fill-opacity="1"></use></g><g><use xlink:href="#b1MajmxdQN" opacity="1" fill="#009650" fill-opacity="1"></use></g><g><use xlink:href="#l46dtQpsik" opacity="1" fill="#5e9682" fill-opacity="1"></use></g></g></g></svg>